<svg width="30" height="27" viewBox="0 0 30 27" fill="none" xmlns="http://www.w3.org/2000/svg">
<path d="M24.4844 12.1975C24.4844 12.1975 24.8802 14.1592 24.9688 14.5705H23.2292C23.401 14.1012 24.0625 12.2766 24.0625 12.2766C24.0521 12.2924 24.2344 11.7967 24.3385 11.4908L24.4844 12.1975ZM30 4.21875V22.7812C30 24.1787 28.8802 25.3125 27.5 25.3125H2.5C1.11979 25.3125 0 24.1787 0 22.7812V4.21875C0 2.82129 1.11979 1.6875 2.5 1.6875H27.5C28.8802 1.6875 30 2.82129 30 4.21875ZM7.94271 17.4656L11.2344 9.28125H9.02083L6.97396 14.8711L6.75 13.7373L6.02083 9.97207C5.90104 9.45 5.53125 9.30234 5.07292 9.28125H1.70312L1.66667 9.44473C2.48958 9.65566 3.22396 9.96152 3.86458 10.3465L5.72917 17.4656H7.94271ZM12.8594 17.4762L14.1719 9.28125H12.0781L10.7708 17.4762H12.8594ZM20.1458 14.7973C20.1562 13.8639 19.5938 13.152 18.3906 12.5666C17.6562 12.1922 17.2083 11.9391 17.2083 11.5541C17.2188 11.2061 17.5885 10.8475 18.4115 10.8475C19.0938 10.8316 19.5938 10.9951 19.9688 11.1586L20.1562 11.2482L20.4427 9.47637C20.0312 9.31289 19.375 9.12832 18.5677 9.12832C16.5 9.12832 15.0469 10.2463 15.0365 11.8389C15.0208 13.0148 16.0781 13.6688 16.8698 14.0643C17.6771 14.465 17.9531 14.7287 17.9531 15.082C17.9427 15.6305 17.2969 15.8836 16.6979 15.8836C15.8646 15.8836 15.4167 15.7518 14.7344 15.4459L14.4583 15.3141L14.1667 17.1545C14.6562 17.3812 15.5625 17.5816 16.5 17.5922C18.6979 17.5975 20.1302 16.4953 20.1458 14.7973ZM27.5 17.4762L25.8125 9.28125H24.1927C23.6927 9.28125 23.3125 9.42891 23.099 9.96152L19.9896 17.4762H22.1875C22.1875 17.4762 22.5469 16.4637 22.625 16.2475H25.3125C25.375 16.5375 25.5625 17.4762 25.5625 17.4762H27.5Z" fill="#C4C4C4"/>
</svg>
