<svg width="34" height="23" viewBox="0 0 34 23" fill="none" xmlns="http://www.w3.org/2000/svg">
<path d="M1.75608 8.29557H3.06944L2.40538 6.67839L1.75608 8.29557ZM10.9201 16.1719L12.0122 14.9889L10.9792 13.806H8.57378V14.5397H10.6693V15.3633H8.57378V16.1719H10.9201ZM13.2517 15.0039L14.7127 16.651V13.4017L13.2517 15.0039ZM17.5017 14.3001C17.5017 13.9707 17.305 13.806 16.9115 13.806H15.6719V14.8392H16.8967C17.3001 14.8392 17.5017 14.6595 17.5017 14.3001ZM21.7665 14.2402C21.7665 13.9507 21.5599 13.806 21.1467 13.806H19.9366V14.7194H21.1319C21.555 14.7194 21.7665 14.5597 21.7665 14.2402ZM17.6641 7.26237C17.6641 6.97287 17.4575 6.82812 17.0443 6.82812H15.8342V7.72656H17.0295C17.4525 7.72656 17.6641 7.57183 17.6641 7.26237ZM24.4375 8.29557H25.7509L25.1016 6.67839L24.4375 8.29557ZM10.3151 5.97461V10.0326H9.34115V6.85807L7.95399 10.0326H7.11285L5.72569 6.85807V10.0326H3.77778L3.40885 9.13411H1.41667L1.04774 10.0326H0.0147569L1.72656 5.97461H3.14323L4.76649 9.82292V5.97461H6.33073L7.58507 8.72982L8.72135 5.97461H10.3151ZM18.52 14.3001C18.52 14.4998 18.4929 14.6745 18.4388 14.8242C18.3847 14.974 18.3158 15.0987 18.2322 15.1986C18.1486 15.2984 18.0379 15.3808 17.9002 15.4456C17.7624 15.5105 17.6345 15.5604 17.5165 15.5954C17.3984 15.6303 17.2435 15.6528 17.0516 15.6628C16.8598 15.6727 16.7049 15.6777 16.5868 15.6777C16.4688 15.6777 16.3089 15.6752 16.1072 15.6702C15.9055 15.6653 15.7604 15.6628 15.6719 15.6628V17.0254H13.8125L12.6319 15.6777L11.4071 17.0254H7.62934V12.9674H11.4661L12.6467 14.3001L13.8568 12.9674H16.9115C17.9838 12.9674 18.52 13.4117 18.52 14.3001ZM14.2257 9.19401V10.0326H11.0234V5.97461H14.2257V6.82812H11.9826V7.56185H14.1667V8.38542H11.9826V9.19401H14.2257ZM34 17.5645V20.9935C34 21.5425 33.8106 22.0142 33.4319 22.4085C33.0531 22.8028 32.5932 23 32.0521 23H1.94792C1.40683 23 0.946904 22.8028 0.568142 22.4085C0.189381 22.0142 0 21.5425 0 20.9935V10.8411H1.63802L2.00694 9.92773H2.81858L3.1875 10.8411H6.40451V10.1523L6.6849 10.8411H8.35243L8.64757 10.1374V10.8411H16.6311V9.35872L16.7786 9.34375C16.877 9.34375 16.9262 9.41363 16.9262 9.55338V10.8411H21.0434V10.4967C21.2697 10.6165 21.5402 10.7064 21.855 10.7663C22.1698 10.8262 22.4281 10.8586 22.6298 10.8636C22.8315 10.8686 23.1413 10.8661 23.5595 10.8561C23.9776 10.8461 24.2309 10.8411 24.3194 10.8411L24.6884 9.92773H25.5148L25.8837 10.8411H29.2335V9.97266L29.7352 10.8411H32.421V5.18099H29.7648V5.83984L29.3958 5.18099H26.6658V5.83984L26.3264 5.18099H22.6519C21.9731 5.18099 21.4369 5.2908 21.0434 5.51042V5.18099H18.5052V5.51042C18.2691 5.2908 17.91 5.18099 17.428 5.18099H8.16059L7.52604 6.63346L6.89149 5.18099H3.96962V5.83984L3.64497 5.18099H1.15104L0 7.86133V2.00651C0 1.45747 0.189381 0.985786 0.568142 0.591471C0.946904 0.197157 1.40683 0 1.94792 0H32.0521C32.5932 0 33.0531 0.197157 33.4319 0.591471C33.8106 0.985786 34 1.45747 34 2.00651V12.1589H32.2292C31.7274 12.1589 31.329 12.2687 31.0339 12.4883V12.1589H28.4219C27.8808 12.1589 27.4971 12.2687 27.2708 12.4883V12.1589H22.6076V12.4883C22.3027 12.2687 21.8747 12.1589 21.3238 12.1589H18.2396V12.4883C18.0133 12.2687 17.5657 12.1589 16.8967 12.1589H13.4436L12.6467 13.0273L11.9089 12.1589H6.75868V17.819H11.8203L12.6319 16.9355L13.3993 17.819H16.513V16.4863H16.8229C17.4034 16.4863 17.8461 16.4214 18.151 16.2917V17.819H20.7188V16.3366H20.8368C20.9155 16.3366 20.9647 16.3466 20.9844 16.3665C21.0041 16.3865 21.0139 16.4364 21.0139 16.5163V17.819H28.8203C29.3811 17.819 29.8139 17.6992 30.1189 17.4596V17.819H32.5981C33.1884 17.819 33.6557 17.7342 34 17.5645ZM22.8142 14.0605C22.8142 14.2901 22.7552 14.5048 22.6372 14.7044C22.5191 14.9041 22.3519 15.0488 22.1354 15.1387C22.3814 15.2285 22.5486 15.3583 22.6372 15.528C22.7257 15.6977 22.77 15.9273 22.77 16.2168V17.0254H21.8108V16.3516C21.8108 16.0221 21.7517 15.805 21.6337 15.7002C21.5156 15.5954 21.2894 15.543 20.9549 15.543H19.9366V17.0254H18.9774V12.9674H21.25C21.7222 12.9674 22.101 13.0423 22.3863 13.1921C22.6716 13.3418 22.8142 13.6313 22.8142 14.0605ZM18.7266 7.06771C18.7266 7.30729 18.6651 7.52691 18.5421 7.72656C18.4191 7.92622 18.2543 8.07096 18.0477 8.16081C18.3035 8.25065 18.4732 8.37793 18.5569 8.54264C18.6405 8.70736 18.6823 8.93945 18.6823 9.23893V10.0326H17.7231C17.7231 9.94271 17.7255 9.81044 17.7305 9.63574C17.7354 9.46105 17.7354 9.33626 17.7305 9.26139C17.7255 9.18652 17.7108 9.09418 17.6862 8.98438C17.6616 8.87457 17.6198 8.7947 17.5608 8.74479C17.5017 8.69488 17.4157 8.65245 17.3025 8.61751C17.1894 8.58257 17.0443 8.5651 16.8672 8.5651H15.8342V10.0326H14.8898V5.97461L17.1476 5.98958C17.6296 5.98958 18.0133 6.06196 18.2986 6.20671C18.5839 6.35145 18.7266 6.63845 18.7266 7.06771ZM26.533 16.1868V17.0254H23.3455V12.9674H26.533V13.806H24.3047V14.5397H26.4887V15.3633H24.3047V16.1719L26.533 16.1868ZM20.2465 5.97461V10.0326H19.2726V5.97461H20.2465ZM30.4731 15.7376C30.4731 16.5961 29.9714 17.0254 28.9679 17.0254H27.1085V16.1569H28.9679C29.3024 16.1569 29.4696 16.0321 29.4696 15.7826C29.4696 15.6228 29.386 15.518 29.2188 15.4681C29.0515 15.4182 28.8474 15.3932 28.6063 15.3932C28.3653 15.3932 28.1218 15.3758 27.8759 15.3408C27.6299 15.3059 27.4233 15.1936 27.2561 15.0039C27.0888 14.8142 27.0052 14.5397 27.0052 14.1803C27.0052 13.791 27.1331 13.4915 27.3889 13.2819C27.6447 13.0723 27.9693 12.9674 28.3628 12.9674H30.2812V13.821H28.5252C28.171 13.821 27.9939 13.9457 27.9939 14.1953C27.9939 14.355 28.08 14.4574 28.2522 14.5023C28.4243 14.5472 28.6309 14.5672 28.872 14.5622C29.113 14.5572 29.354 14.5697 29.5951 14.5996C29.8361 14.6296 30.0427 14.7369 30.2148 14.9215C30.387 15.1062 30.4731 15.3783 30.4731 15.7376ZM34 14.9889V16.5013C33.7639 16.8507 33.331 17.0254 32.7014 17.0254H30.8568V16.1569H32.7014C33.026 16.1569 33.1884 16.0321 33.1884 15.7826C33.1884 15.6528 33.1269 15.5579 33.0039 15.498C32.8809 15.4382 32.7284 15.4107 32.5464 15.4157C32.3644 15.4207 32.1677 15.4107 31.9562 15.3857C31.7446 15.3608 31.5479 15.3209 31.3659 15.266C31.1839 15.211 31.0314 15.0913 30.9084 14.9066C30.7854 14.7219 30.724 14.4798 30.724 14.1803C30.724 13.791 30.8543 13.4915 31.115 13.2819C31.3757 13.0723 31.7028 12.9674 32.0964 12.9674H34V13.821H32.2587C31.9045 13.821 31.7274 13.9457 31.7274 14.1953C31.7274 14.395 31.8701 14.5048 32.1554 14.5247C32.4407 14.5447 32.7776 14.5697 33.1662 14.5996C33.5548 14.6296 33.8328 14.7593 34 14.9889ZM31.5651 5.98958V10.0326H30.2075L28.4071 6.99284V10.0326H26.4592L26.0755 9.13411H24.0981L23.7292 10.0326H22.6224C21.3533 10.0326 20.7188 9.36871 20.7188 8.04102C20.7188 6.66341 21.373 5.97461 22.6814 5.97461H23.6111V6.85807C23.5422 6.85807 23.4045 6.85308 23.1979 6.8431C22.9913 6.83312 22.8511 6.83062 22.7773 6.83561C22.7036 6.8406 22.5904 6.85059 22.4379 6.86556C22.2854 6.88053 22.1797 6.91298 22.1207 6.96289C22.0616 7.0128 21.9903 7.08019 21.9067 7.16504C21.8231 7.24989 21.7665 7.36469 21.737 7.50944C21.7075 7.65419 21.6927 7.8214 21.6927 8.01107C21.6927 8.39041 21.7591 8.6799 21.8919 8.87956C22.0247 9.07921 22.2682 9.17904 22.6224 9.17904H23.0503L24.408 5.98958H25.8394L27.4479 9.82292V5.98958H28.9089L30.5911 8.80469V5.98958H31.5651Z" fill="#C4C4C4"/>
</svg>
