<svg width="31" height="31" viewBox="0 0 31 31" fill="none" xmlns="http://www.w3.org/2000/svg">
<g clip-path="url(#clip0)">
<path d="M25.9906 23.804C25.9906 24.1702 25.7436 24.4337 25.388 24.4337C25.0218 24.4337 24.7855 24.1537 24.7855 23.804C24.7855 23.4543 25.0218 23.1743 25.388 23.1743C25.7436 23.1743 25.9906 23.4543 25.9906 23.804ZM9.26319 23.1743C8.88053 23.1743 8.66063 23.4543 8.66063 23.804C8.66063 24.1537 8.8815 24.4337 9.26319 24.4337C9.61291 24.4337 9.84928 24.1702 9.84928 23.804C9.84347 23.4543 9.61291 23.1743 9.26319 23.1743ZM15.5872 23.1588C15.2966 23.1588 15.1183 23.3468 15.0757 23.6267H16.1035C16.0551 23.3196 15.8672 23.1588 15.5872 23.1588ZM21.389 23.1743C21.0228 23.1743 20.8029 23.4543 20.8029 23.804C20.8029 24.1537 21.0238 24.4337 21.389 24.4337C21.7552 24.4337 21.9916 24.1702 21.9916 23.804C21.9916 23.4543 21.7542 23.1743 21.389 23.1743ZM27.0882 24.579C27.0882 24.5955 27.1047 24.6061 27.1047 24.6381C27.1047 24.6546 27.0882 24.6652 27.0882 24.6972C27.0717 24.7137 27.0717 24.7243 27.0611 24.7398C27.0446 24.7563 27.0339 24.767 27.002 24.767C26.9855 24.7834 26.9748 24.7834 26.9429 24.7834C26.9264 24.7834 26.9157 24.7834 26.8838 24.767C26.8673 24.767 26.8567 24.7505 26.8412 24.7398C26.8247 24.7234 26.814 24.7127 26.814 24.6972C26.7976 24.6701 26.7976 24.6546 26.7976 24.6381C26.7976 24.611 26.7976 24.5955 26.814 24.579C26.814 24.5519 26.8305 24.5364 26.8412 24.5199C26.8576 24.5035 26.8683 24.5035 26.8838 24.4928C26.9109 24.4763 26.9264 24.4763 26.9429 24.4763C26.97 24.4763 26.9855 24.4763 27.002 24.4928C27.0291 24.5083 27.0446 24.5083 27.0611 24.5199C27.0775 24.5315 27.0717 24.5519 27.0882 24.579ZM26.97 24.6546C26.9971 24.6546 26.9971 24.6381 27.0126 24.6381C27.0291 24.6216 27.0291 24.611 27.0291 24.5955C27.0291 24.58 27.0291 24.5684 27.0126 24.5529C26.9971 24.5529 26.9855 24.5364 26.9535 24.5364H26.8673V24.7243H26.9099V24.6488H26.9264L26.9855 24.7243H27.0281L26.97 24.6546ZM31.001 6.0817V25.0266C31.0007 25.7117 30.7284 26.3687 30.2439 26.8532C29.7595 27.3377 29.1025 27.61 28.4173 27.6102H2.58366C1.89851 27.61 1.24149 27.3377 0.757019 26.8532C0.272545 26.3687 0.000256755 25.7117 0 25.0266V6.0817C0.000256755 5.39655 0.272545 4.73954 0.757019 4.25507C1.24149 3.77059 1.89851 3.4983 2.58366 3.49805H28.4173C29.1025 3.4983 29.7595 3.77059 30.2439 4.25507C30.7284 4.73954 31.0007 5.39655 31.001 6.0817ZM3.44584 13.5944C3.44584 17.7115 6.78803 21.0479 10.8994 21.0479C12.3636 21.0437 13.7947 20.6117 15.0166 19.805C11.0932 16.614 11.1203 10.5912 15.0166 7.3992C13.7959 6.58994 12.364 6.15769 10.8994 6.1563C6.78803 6.15145 3.44584 9.49267 3.44584 13.5944ZM15.501 19.4505C19.2956 16.49 19.2791 10.721 15.501 7.74505C11.7228 10.721 11.7064 16.4958 15.501 19.4505ZM7.84203 23.557C7.84203 23.0891 7.53494 22.782 7.05056 22.7655C6.80256 22.7655 6.53906 22.8411 6.36178 23.1152C6.23294 22.8944 6.01206 22.7655 5.70497 22.7655C5.59338 22.7638 5.48306 22.7894 5.38362 22.84C5.28417 22.8907 5.19861 22.9649 5.13437 23.0561V22.8198H4.69359V24.795H5.13437C5.13437 23.7779 4.99972 23.1695 5.61875 23.1695C6.16803 23.1695 6.0605 23.7188 6.0605 24.795H6.48578C6.48578 23.8098 6.35112 23.1695 6.97016 23.1695C7.51944 23.1695 7.41094 23.7081 7.41094 24.795H7.85269V23.557H7.84203ZM10.2591 22.8198H9.83378V23.0561C9.7585 22.9622 9.66244 22.8871 9.55316 22.8367C9.44389 22.7862 9.32439 22.7619 9.20409 22.7655C8.64997 22.7655 8.22469 23.2073 8.22469 23.804C8.22469 24.4066 8.64997 24.8425 9.20409 24.8425C9.48406 24.8425 9.68847 24.7398 9.83378 24.5519V24.7999H10.2591V22.8198ZM12.4388 24.1973C12.4388 23.3904 11.2065 23.7556 11.2065 23.3787C11.2065 23.0716 11.8468 23.121 12.2024 23.3196L12.3797 22.9699C11.874 22.6415 10.7541 22.6473 10.7541 23.4117C10.7541 24.1809 11.9863 23.8583 11.9863 24.2186C11.9863 24.5577 11.2598 24.5306 10.8723 24.2613L10.6843 24.6003C11.2869 25.0091 12.4388 24.9229 12.4388 24.1964V24.1973ZM14.3443 24.6972L14.2261 24.331C14.0217 24.4434 13.5693 24.5674 13.5693 24.1101V23.217H14.2745V22.8188H13.5693V22.2162H13.1275V22.8188H12.7187V23.2121H13.1275V24.1111C13.1275 25.0585 14.0585 24.8861 14.3443 24.6972ZM15.0592 23.9765H16.5395C16.5395 23.1046 16.1413 22.7597 15.6027 22.7597C15.0321 22.7597 14.6233 23.185 14.6233 23.7982C14.6233 24.9016 15.84 25.0847 16.4426 24.5625L16.2382 24.24C15.8187 24.5848 15.1832 24.5519 15.0592 23.9765ZM18.2406 22.8198C17.9936 22.7122 17.6167 22.7229 17.423 23.0561V22.8198H16.9812V24.795H17.423V23.681C17.423 23.0561 17.9345 23.1375 18.1117 23.2286L18.2406 22.8198ZM18.8112 23.804C18.8112 23.1898 19.436 22.9912 19.9252 23.3516L20.1297 23.0019C19.5048 22.5127 18.3694 22.781 18.3694 23.8089C18.3694 24.8745 19.5746 25.0895 20.1297 24.6158L19.9252 24.2661C19.4302 24.6158 18.8112 24.4066 18.8112 23.803V23.804ZM22.4004 22.8198H21.9587V23.0561C21.5121 22.4642 20.3496 22.7985 20.3496 23.804C20.3496 24.8377 21.5547 25.1331 21.9587 24.5519V24.7999H22.4004V22.8198ZM24.2139 22.8198C24.0851 22.7549 23.622 22.6638 23.3963 23.0561V22.8198H22.971V24.795H23.3963V23.681C23.3963 23.0891 23.8807 23.1269 24.0851 23.2286L24.2139 22.8198ZM26.3829 22.0176H25.9577V23.0561C25.5159 22.47 24.3486 22.782 24.3486 23.804C24.3486 24.8483 25.5595 25.1273 25.9577 24.5519V24.7999H26.3829V22.0176ZM26.7927 17.976V18.224H26.8353V17.976H26.9371V17.9334H26.6891V17.976H26.7927ZM27.1473 24.6381C27.1473 24.611 27.1473 24.579 27.1318 24.5519C27.1153 24.5354 27.1047 24.5093 27.0892 24.4928C27.0737 24.4763 27.0465 24.4657 27.0301 24.4502C27.0029 24.4502 26.971 24.4337 26.9438 24.4337C26.9274 24.4337 26.9012 24.4502 26.8683 24.4502C26.847 24.4621 26.8272 24.4764 26.8092 24.4928C26.7821 24.5083 26.7666 24.5354 26.7666 24.5519C26.7501 24.579 26.7501 24.611 26.7501 24.6381C26.7501 24.6546 26.7501 24.6807 26.7666 24.7137C26.7666 24.7301 26.783 24.7563 26.8092 24.7728C26.8255 24.7911 26.8457 24.8057 26.8683 24.8154C26.8954 24.8309 26.9274 24.8309 26.9438 24.8309C26.971 24.8309 27.0029 24.8309 27.0301 24.8154C27.0465 24.7989 27.0727 24.7883 27.0892 24.7728C27.1056 24.7573 27.1163 24.7301 27.1318 24.7137C27.1473 24.6817 27.1473 24.6546 27.1473 24.6381ZM27.3197 17.9276H27.2442L27.1579 18.1155L27.0717 17.9276H26.9962V18.2182H27.0388V17.9973L27.125 18.1853H27.1841L27.2597 17.9973V18.2182H27.3187L27.3197 17.9276ZM27.5561 13.5944C27.5561 9.49267 24.2139 6.15145 20.1025 6.15145C18.6383 6.15512 17.2071 6.58718 15.9853 7.39436C19.8662 10.5864 19.9252 16.6246 15.9853 19.8002C17.2067 20.608 18.6381 21.0401 20.1025 21.0431C24.2139 21.0489 27.5561 17.7115 27.5561 13.5944Z" fill="#C4C4C4"/>
</g>
<defs>
<clipPath id="clip0">
<rect width="31" height="31" fill="white"/>
</clipPath>
</defs>
</svg>
