<svg width="24" height="24" viewBox="0 0 24 24" fill="none" xmlns="http://www.w3.org/2000/svg">
<path d="M12 24C18.6274 24 24 18.6274 24 12C24 5.37258 18.6274 0 12 0C5.37258 0 0 5.37258 0 12C0 18.6274 5.37258 24 12 24Z" fill="#BBB8D1"/>
<path d="M19.6666 8.12344C19.4838 7.42969 18.9447 6.88828 18.251 6.69844C17.0041 6.36328 12.0002 6.36328 12.0002 6.36328C12.0002 6.36328 6.99629 6.36328 5.74941 6.69844C5.05801 6.88594 4.51895 7.42969 4.33379 8.12344C4.00098 9.37969 4.00098 12 4.00098 12C4.00098 12 4.00098 14.6203 4.33613 15.8766C4.52129 16.5703 5.05801 17.1117 5.75176 17.3016C6.99863 17.6367 12.0025 17.6367 12.0025 17.6367C12.0025 17.6367 17.0064 17.6367 18.2533 17.3016C18.9447 17.1141 19.4838 16.5703 19.6689 15.8766C20.0041 14.6203 20.0041 12 20.0041 12C20.0041 12 19.9994 9.37969 19.6666 8.12344ZM10.3643 14.3789V9.62109L14.5455 12L10.3643 14.3789Z" fill="white"/>
</svg>
